<svg xmlns="http://www.w3.org/2000/svg" viewBox="0 0 954.89 956.34"><defs><style>.cls-1{fill:#030075;}.cls-1,.cls-2,.cls-3{stroke:#000;stroke-width:10px;}.cls-1,.cls-2,.cls-3,.cls-5,.cls-8,.cls-9{stroke-miterlimit:10;}.cls-2{fill:#288eea;}.cls-3,.cls-5,.cls-8{fill:none;}.cls-4{fill:#ffd400;}.cls-5{stroke:#ffd400;stroke-width:13px;}.cls-6{fill:#dae589;}.cls-7{fill:#fff;}.cls-8,.cls-9{stroke:#fff;stroke-width:15px;}.cls-9{fill:#81ffff;}</style></defs><title>Asset 11</title><g id="Layer_2" data-name="Layer 2"><g id="Layer_1-2" data-name="Layer 1"><path class="cls-1" d="M476.89,5.34c261.23,0,473,211.77,473,473s-211.77,473-473,473"/><path class="cls-2" d="M478,951C216.77,951,5,739.23,5,478S216.77,5,478,5"/><polyline class="cls-3" points="875.89 475.34 944.89 475.34 875.89 475.34"/><polyline class="cls-3" points="709.43 72.14 674.35 131.55 709.43 72.14"/><polyline class="cls-3" points="883.13 245.53 826.65 285.16 883.13 245.53"/><polyline class="cls-3" points="879.64 720.25 821.06 683.79 879.64 720.25"/><polyline class="cls-3" points="703.3 888.92 665 831.53 703.3 888.92"/><polyline class="cls-3" points="252.74 888.93 286.59 828.8 252.74 888.93"/><polyline class="cls-3" points="74.53 716.12 130.19 675.33 74.53 716.12"/><polyline class="cls-3" points="60.43 263.46 121.23 296.08 60.43 263.46"/><polyline class="cls-3" points="223.65 82.89 265.56 137.7 223.65 82.89"/><polyline class="cls-3" points="478.29 8.9 478.55 77.9 478.29 8.9"/><polyline class="cls-3" points="479.74 877.25 479.99 946.25 479.74 877.25"/><polyline class="cls-3" points="6.89 475.34 75.89 475.34 6.89 475.34"/><circle class="cls-4" cx="274.83" cy="576.9" r="89.08"/><line class="cls-5" x1="269.36" y1="475.4" x2="269.36" y2="436.34"/><line class="cls-5" x1="377.37" y1="577.09" x2="409.05" y2="577.09"/><line class="cls-5" x1="324.35" y1="487.99" x2="348.3" y2="457.14"/><line class="cls-5" x1="364.4" y1="531.96" x2="400.1" y2="516.11"/><line class="cls-5" x1="201.75" y1="653.18" x2="170.59" y2="676.73"/><line class="cls-5" x1="211.41" y1="492.24" x2="192.31" y2="466.97"/><line class="cls-5" x1="174.58" y1="596.35" x2="135.72" y2="600.26"/><line class="cls-5" x1="180.85" y1="540.09" x2="146.68" y2="521.17"/><line class="cls-5" x1="357.32" y1="647.43" x2="388.92" y2="670.39"/><line class="cls-5" x1="314.82" y1="677.4" x2="325.71" y2="714.91"/><line class="cls-5" x1="255.82" y1="690.93" x2="247.55" y2="729.28"/><path class="cls-6" d="M572,224.28s-84.39,128.4,28,197.73c106.36,65.64,169.29-56.24,169.29-56.24s-72.86,56.74-141.51,2.84S572,224.28,572,224.28Z"/><circle class="cls-7" cx="478.89" cy="478.34" r="22"/><line class="cls-8" x1="475.89" y1="477.34" x2="320.89" y2="333.34"/><line class="cls-9" x1="479.39" y1="856.84" x2="477.15" y2="481.11"/></g></g></svg>